<svg width="45" height="45" viewBox="0 0 45 45" fill="none" xmlns="http://www.w3.org/2000/svg">
<circle cx="22.4074" cy="22.4074" r="22.1574" fill="#3E3E3E" stroke="#3E3E3E" stroke-width="0.5"/>
<path d="M12.035 38.196C11.7983 39.0007 11.4907 39.7343 11.112 40.397C10.7333 41.0123 10.331 41.3673 9.905 41.462C9.00567 41.6987 8.31933 41.5567 7.846 41.036C7.37267 40.5153 7.18333 39.8527 7.278 39.048C7.65667 36.208 8.272 33.226 9.124 30.102C9.976 26.9307 10.97 23.783 12.106 20.659C13.242 17.4877 14.4727 14.4347 15.798 11.5C17.1707 8.518 18.567 5.82 19.987 3.406C20.2237 3.02733 20.484 2.81433 20.768 2.767C21.0993 2.67233 21.3833 2.67233 21.62 2.767C21.8567 2.57766 22.1407 2.412 22.472 2.27C22.8033 2.128 23.1347 2.057 23.466 2.057C23.608 2.057 23.75 2.08067 23.892 2.128C24.0813 2.17533 24.2707 2.31733 24.46 2.554C24.6493 2.79066 24.8623 3.14566 25.099 3.619C25.383 4.045 25.7143 4.684 26.093 5.536C26.7557 7.95 27.513 10.435 28.365 12.991C29.2643 15.547 30.1873 18.103 31.134 20.659C31.276 20.6117 31.3943 20.588 31.489 20.588C31.631 20.5407 31.773 20.4933 31.915 20.446C32.4357 20.3987 33.0273 20.4223 33.69 20.517C34.3527 20.6117 34.8023 20.943 35.039 21.511C35.323 22.221 35.2757 22.8363 34.897 23.357C34.5183 23.8777 33.832 24.3983 32.838 24.919C33.4533 26.4337 34.0687 27.9247 34.684 29.392C35.2993 30.812 35.9383 32.2083 36.601 33.581C36.6483 33.8177 36.7193 34.1963 36.814 34.717C36.9087 35.1903 36.956 35.6873 36.956 36.208C37.0033 36.6813 36.9797 37.131 36.885 37.557C36.7903 37.983 36.601 38.267 36.317 38.409C35.9857 38.551 35.6307 38.5273 35.252 38.338C34.9207 38.1487 34.5893 37.912 34.258 37.628C33.9267 37.2967 33.619 36.9653 33.335 36.634C33.0983 36.2553 32.909 35.924 32.767 35.64C31.9623 34.078 31.1813 32.516 30.424 30.954C29.714 29.3447 29.0277 27.7353 28.365 26.126C26.377 26.5047 24.1997 26.836 21.833 27.12C19.5137 27.404 17.218 27.5933 14.946 27.688C14.4253 29.4867 13.9047 31.2617 13.384 33.013C12.9107 34.717 12.461 36.4447 12.035 38.196ZM22.117 8.376C19.9397 13.2513 18.0463 18.1267 16.437 23.002C19.6083 22.9073 22.9927 22.505 26.59 21.795C24.886 17.4877 23.395 13.0147 22.117 8.376Z" fill="white"/>
</svg>
